<svg width="21" height="24" viewBox="0 0 21 24" fill="none" xmlns="http://www.w3.org/2000/svg">
<path fill-rule="evenodd" clip-rule="evenodd" d="M0 9.98131C0 4.46147 4.61266 0 10.1921 0C15.7873 0 20.4 4.46147 20.4 9.98131C20.4 12.7628 19.3884 15.3452 17.7234 17.5339C15.8866 19.9482 13.6226 22.0518 11.0743 23.7029C10.491 24.0845 9.96465 24.1133 9.32454 23.7029C6.76168 22.0518 4.4977 19.9482 2.6766 17.5339C1.01038 15.3452 0 12.7628 0 9.98131ZM6.83203 10.2921C6.83203 12.1413 8.34095 13.5956 10.1911 13.5956C12.0424 13.5956 13.5659 12.1413 13.5659 10.2921C13.5659 8.45738 12.0424 6.93223 10.1911 6.93223C8.34095 6.93223 6.83203 8.45738 6.83203 10.2921Z" fill="white"/>
</svg>
