<svg width="27" height="24" viewBox="0 0 27 24" fill="none" xmlns="http://www.w3.org/2000/svg">
<path fill-rule="evenodd" clip-rule="evenodd" d="M19.9187 0C21.7067 0 23.4267 0.706667 24.692 1.97467C25.9587 3.24 26.6667 4.94667 26.6667 6.73333V17.2667C26.6667 20.9867 23.64 24 19.9187 24H6.74667C3.02533 24 0 20.9867 0 17.2667V6.73333C0 3.01333 3.012 0 6.74667 0H19.9187ZM22.0399 8.71991L22.1466 8.61324C22.4652 8.22658 22.4652 7.66658 22.1319 7.27991C21.9466 7.08124 21.6919 6.95991 21.4266 6.93324C21.1466 6.91858 20.8799 7.01324 20.6786 7.19991L14.6666 11.9999C13.8932 12.6412 12.7852 12.6412 11.9999 11.9999L5.99991 7.19991C5.58524 6.89324 5.01191 6.93324 4.66657 7.29324C4.30657 7.65324 4.26657 8.22658 4.57191 8.62658L4.74657 8.79991L10.8132 13.5332C11.5599 14.1199 12.4652 14.4399 13.4132 14.4399C14.3586 14.4399 15.2799 14.1199 16.0252 13.5332L22.0399 8.71991Z" fill="white"/>
</svg>
