<svg width="24" height="24" viewBox="0 0 24 24" fill="none" xmlns="http://www.w3.org/2000/svg">
<path d="M14.9015 4.18786C14.3303 4.08233 13.8056 4.44688 13.6969 5.0045C13.5881 5.56212 13.9538 6.10654 14.5095 6.21567C16.1826 6.54185 17.4745 7.83696 17.8019 9.51581V9.51701C17.8951 10.0003 18.3206 10.3516 18.8106 10.3516C18.8763 10.3516 18.942 10.3456 19.0089 10.3336C19.5646 10.2221 19.9303 9.6789 19.8216 9.12008C19.3328 6.6126 17.4028 4.67592 14.9015 4.18786Z" fill="white"/>
<path d="M14.8278 0.00951574C14.5601 -0.028858 14.2912 0.0502878 14.0773 0.220571C13.8574 0.393253 13.72 0.642682 13.6901 0.922091C13.6267 1.4869 14.0343 1.99775 14.5983 2.06131C18.4883 2.49541 21.5118 5.52574 21.9492 9.42787C22.0077 9.95071 22.4463 10.3452 22.9698 10.3452C23.0092 10.3452 23.0474 10.3428 23.0869 10.338C23.3605 10.3081 23.6043 10.1726 23.7764 9.95671C23.9473 9.74085 24.025 9.47224 23.9939 9.19763C23.449 4.32896 19.6809 0.550345 14.8278 0.00951574Z" fill="white"/>
<path fill-rule="evenodd" clip-rule="evenodd" d="M10.8379 13.1668C15.6247 17.9524 16.7107 12.416 19.7585 15.4618C22.6968 18.3993 24.3856 18.9878 20.6628 22.7097C20.1964 23.0844 17.2337 27.5931 6.82142 17.1836C-3.59212 6.77276 0.913888 3.80689 1.28874 3.34069C5.02056 -0.391437 5.59895 1.30721 8.53726 4.24475C11.5851 7.29176 6.0511 8.38126 10.8379 13.1668Z" fill="white"/>
</svg>
