<svg width="48" height="48" viewBox="0 0 48 48" fill="none" xmlns="http://www.w3.org/2000/svg">
<path d="M12.1636 8.76991C11.5305 9.7828 11.0381 10.9746 10.5618 12.1261L6.22485 22.0662L24.459 30.0407L24.7102 29.4519V24.5622V13.3762C24.7102 12.9119 24.7001 12.4417 24.6901 11.9654C24.66 10.6028 24.6298 9.19597 24.8308 7.83338C24.9092 7.30684 25.0358 6.80441 25.1845 6.31203C24.5072 5.97842 23.8179 5.65083 23.1507 5.37148C19.1513 3.71347 14.4245 5.1685 12.1636 8.76991ZM23.0622 8.16097C22.8773 8.6031 22.3749 8.80809 21.9328 8.62521C19.4106 7.57413 16.4664 8.42625 15.0877 10.6168C15.0877 10.6168 15.0877 10.6168 15.0857 10.6188C14.6234 11.3544 14.2215 12.3271 13.7975 13.3601C13.6105 13.8123 13.4337 14.2403 13.2488 14.6604L11.3918 18.9089C11.2491 19.2325 10.9336 19.4254 10.6 19.4254C10.4834 19.4254 10.3669 19.4013 10.2543 19.3531C9.81822 19.1621 9.61926 18.6537 9.81018 18.2176L11.6692 13.967C11.85 13.5591 12.0209 13.141 12.1937 12.723C12.6559 11.5996 13.086 10.5606 13.6266 9.70041C13.6266 9.6984 13.6266 9.6984 13.6286 9.69639C15.4796 6.75618 19.2538 5.63878 22.6 7.03352C23.0381 7.21439 23.2451 7.72084 23.0622 8.16097Z" fill="white"/>
<path d="M26.4385 29.6288V29.6349V38.4314C26.5068 42.489 29.1677 46.1788 32.9057 47.3927C34.4291 47.8951 36.0208 47.8931 37.7029 47.8871H38.1471C40.2633 47.8871 42.263 47.252 43.929 46.0522C46.4271 44.2234 47.8057 41.2912 47.8057 37.8043V25.4265H26.4385V29.6288Z" fill="white"/>
<path d="M1.72504 32.372L0.919149 34.2189C-0.383145 37.1953 -0.298737 40.2059 1.15429 42.6959C2.11292 44.3378 3.578 45.624 5.39478 46.4179L5.77864 46.5867C7.21156 47.2177 8.56611 47.8126 10.0573 47.9613C13.6869 48.3191 17.3425 46.1647 18.9201 42.712L23.7696 31.6224L5.53948 23.6519L1.72504 32.372Z" fill="white"/>
<path d="M45.9545 3.90239C44.6441 2.08963 42.6224 0.737092 40.5504 0.280887C39.0571 -0.0487057 37.4594 -0.0145406 35.9119 0.023644C31.9829 0.0738868 28.4237 2.5398 27.0491 6.1593C26.814 6.76623 26.6431 7.41336 26.5406 8.08862C26.3618 9.30651 26.3919 10.6389 26.4181 11.9312C26.4281 12.4175 26.4382 12.9019 26.4382 13.3782V23.7021H47.8054V11.0851C47.8054 8.66943 47.5803 6.12915 45.9545 3.90239ZM36.1029 3.70946C33.1044 3.7597 30.6224 5.83171 30.1983 8.63526C30.0597 9.56174 30.0838 10.6892 30.1079 11.883C30.1199 12.3874 30.128 12.8898 30.128 13.3862V18.3402C30.128 18.8165 29.7421 19.2043 29.2638 19.2043C28.7855 19.2043 28.3996 18.8185 28.3996 18.3402V13.3862C28.3996 12.9039 28.3896 12.4135 28.3795 11.9211C28.3514 10.651 28.3273 9.45121 28.4881 8.37802C29.0367 4.73843 32.2261 2.04742 36.0707 1.98311H36.0848C36.555 1.98311 36.9409 2.35893 36.949 2.83121C36.959 3.30952 36.5792 3.70142 36.1029 3.70946Z" fill="white"/>
</svg>
