<svg width="48" height="48" viewBox="0 0 48 48" fill="none" xmlns="http://www.w3.org/2000/svg">
<path d="M23.5689 48C19.5625 48 15.6178 46.9964 12.1027 45.0813C11.8803 45.3426 11.6215 45.5706 11.3343 45.7583C9.67863 46.8413 7.45038 46.3756 6.36719 44.7198C5.2841 43.0641 5.74994 40.8358 7.40566 39.7527C9.06157 38.6698 11.2898 39.1357 12.3728 40.7912C13.0805 41.8732 13.1269 43.1995 12.612 44.2912C20.0513 48.3191 29.015 47.9578 36.111 43.3161C46.6998 36.3893 49.6792 22.1393 42.7524 11.5505C42.7187 11.4989 42.6955 11.4413 42.6841 11.3808C42.6727 11.3203 42.6733 11.2582 42.6859 11.1979C42.6985 11.1376 42.7228 11.0805 42.7575 11.0296C42.7922 10.9788 42.8366 10.9353 42.8881 10.9016C42.9397 10.8679 42.9973 10.8446 43.0578 10.8332C43.1183 10.8218 43.1804 10.8224 43.2407 10.835C43.3009 10.8476 43.3581 10.872 43.409 10.9067C43.4598 10.9414 43.5033 10.9857 43.537 11.0373C47.0295 16.3763 48.2339 22.7558 46.9282 29.0006C45.6226 35.2455 41.9632 40.6081 36.6243 44.1007C32.8859 46.546 28.5609 47.8923 24.1169 47.9938C23.9343 47.998 23.7512 48 23.5689 48ZM6.68482 18.3597C5.88588 20.769 5.60744 23.3429 5.89047 25.9417C6.4091 30.7043 8.75135 34.98 12.4858 37.9809C16.2202 40.9819 20.8998 42.3488 25.6625 41.8303C30.4251 41.3117 34.7007 38.9694 37.7016 35.235C38.5339 34.1993 39.2407 33.0907 39.8162 31.928C37.6488 31.5824 37.2844 29.6538 36.9589 27.9328C36.662 26.3637 36.3816 24.8815 34.9829 24.1687C34.9667 24.1605 34.951 24.1515 34.9357 24.1416C34.3863 23.7901 33.8787 23.7925 33.2887 23.7951C32.1875 23.7994 30.9381 23.8058 29.7518 21.4549C28.9638 19.8929 29.291 18.1785 30.6272 16.8688C32.1843 15.3426 34.4948 14.9247 36.2459 15.8527C37.5114 16.5234 38.5089 16.3944 39.3889 16.2807C39.5647 16.258 39.732 16.2364 39.8929 16.2224C39.1088 14.5889 38.0764 13.0808 36.8212 11.7447C35.9046 12.1652 34.2099 12.917 32.8821 12.9977C31.5001 13.082 30.4728 12.5435 30.2642 11.6267C30.1456 11.1052 30.1931 9.82611 32.8232 8.54154C31.3384 7.66196 29.7334 7.00348 28.0587 6.58685C27.442 7.89551 25.7153 9.61545 24.3283 9.61545C23.0872 9.61545 22.2028 8.20648 21.4225 6.96336C21.2698 6.72007 21.1241 6.48776 20.9813 6.27401C18.9203 6.59032 16.9611 7.25192 15.1703 8.22232C15.2086 8.33201 15.2289 8.44826 15.2305 8.56929C15.2367 9.04845 14.9463 9.56567 14.3428 10.1504C13.7674 10.7078 13.8915 11.084 14.0349 11.3184C14.4482 11.9935 15.6077 12.3644 16.0736 12.2056C16.1516 12.179 16.1779 12.17 16.1623 12.0278C16.0225 10.7447 16.6068 10.2422 16.9674 10.0568C17.8248 9.61601 19.1495 10.0503 20.4242 11.1904C21.3992 12.0625 22.2413 12.8158 22.0891 13.7683C21.9576 14.5903 21.1269 15.2674 19.2232 16.1031C17.7518 16.9025 17.7412 18.3907 17.7301 19.9659C17.7181 21.6704 17.7032 23.7917 14.8899 23.7917C11.6382 23.7919 8.01054 20.3279 6.68482 18.3597ZM35.5112 23.1919C37.3744 24.156 37.7331 26.0525 38.0499 27.7266C38.4223 29.6948 38.7026 30.7682 40.2997 30.865C41.4437 28.1135 41.8827 25.103 41.5512 22.0583V22.0582C41.3719 20.4115 40.9745 18.8228 40.377 17.3251C40.1664 17.2996 39.8692 17.3383 39.5315 17.382C38.5912 17.5036 37.3038 17.6701 35.7263 16.8339C34.2447 16.0488 32.4307 16.656 31.4046 17.6618C30.9374 18.1198 29.9376 19.3575 30.7434 20.9548C31.6201 22.6924 32.3195 22.6888 33.2839 22.6848C33.946 22.6822 34.6948 22.6783 35.5112 23.1919ZM7.19557 17.0073C7.22632 17.0489 7.25191 17.0955 7.27076 17.1465C7.69713 18.3035 11.6841 22.6815 14.8899 22.6815C16.5315 22.6815 16.6065 21.8466 16.6199 19.9582C16.6316 18.2939 16.6461 16.2226 18.7178 15.1143C18.7306 15.1074 18.7437 15.101 18.7571 15.0952C20.624 14.2778 20.959 13.8032 20.9927 13.593C21.0493 13.2392 20.2922 12.562 19.684 12.018C18.7114 11.148 17.8195 10.8672 17.4751 11.0445C17.2162 11.1775 17.2429 11.6926 17.2662 11.9077C17.3361 12.5503 17.0244 13.0545 16.4322 13.2565C15.4021 13.6076 13.7147 12.9222 13.0879 11.898C12.5806 11.0689 12.7564 10.1413 13.5703 9.35286C13.7277 9.20033 13.8402 9.07254 13.9204 8.96764C12.3553 9.99036 10.9449 11.2653 9.73994 12.7649C8.68694 14.0752 7.83532 15.5016 7.19557 17.0073ZM33.9368 9.25676C31.8815 10.1178 31.2591 10.9944 31.347 11.3806C31.4121 11.6666 31.9484 11.9426 32.815 11.8895C33.7911 11.8302 35.0944 11.3016 35.9804 10.9068C35.6499 10.5983 35.3081 10.3023 34.9557 10.0191C34.625 9.75325 34.2852 9.49897 33.9368 9.25676ZM22.2089 6.12795C22.2596 6.20848 22.3111 6.29023 22.3631 6.37329C22.9594 7.32317 23.7014 8.50526 24.3285 8.50526C25.0533 8.50526 26.3641 7.37792 26.9393 6.34685C25.3965 6.06757 23.8093 5.99145 22.2089 6.12795ZM23.0166 40.7752C22.9862 40.7752 22.9556 40.7743 22.9247 40.7723C22.4144 40.7377 21.9642 40.5086 21.6188 40.11C20.5308 38.8539 20.6024 36.0838 20.7509 34.1093C20.76 33.9883 20.7671 33.8938 20.7702 33.8318C20.8307 32.587 20.3584 31.3068 19.4404 30.2267C18.2839 28.8663 17.6437 26.387 18.6257 24.7536C19.0159 24.1047 20.0014 23.0914 22.2271 23.5687C24.2467 23.775 24.8851 24.4332 25.4486 25.0143C25.8863 25.4656 26.2322 25.8221 27.4143 25.9393C28.3362 26.0307 28.9078 26.3353 29.1622 26.8705C29.6104 27.8137 28.834 28.9866 28.012 30.2283C27.7489 30.6258 27.4768 31.0368 27.2733 31.4057C27.1371 31.6524 26.9995 31.8991 26.8622 32.1448C25.9565 33.7662 25.101 35.2976 24.8536 36.6007C24.8279 36.7362 24.8121 37.0076 24.7955 37.2949C24.7349 38.3445 24.6517 39.7819 23.9155 40.4354C23.6638 40.6586 23.3546 40.7752 23.0166 40.7752ZM21.1315 24.5534C20.4074 24.5534 19.8864 24.8116 19.5773 25.3256C18.9493 26.3703 19.2806 28.3244 20.2864 29.5075C21.3878 30.8033 21.9535 32.3583 21.8793 33.8858C21.8759 33.9543 21.8682 34.0588 21.8581 34.1926C21.6515 36.9386 21.8534 38.685 22.4581 39.383C22.6117 39.5603 22.7828 39.6497 22.9965 39.6643C23.0853 39.6696 23.1337 39.6443 23.1785 39.6047C23.57 39.2573 23.6462 37.9389 23.6871 37.2307C23.7075 36.8782 23.7236 36.5998 23.7628 36.3934C24.0439 34.9132 24.942 33.3054 25.8929 31.6031C26.0292 31.3592 26.1659 31.1143 26.3012 30.8692C26.5263 30.4611 26.8109 30.0311 27.0862 29.6153C27.5849 28.8621 28.3386 27.7238 28.1595 27.3471C28.1069 27.2364 27.8548 27.0987 27.305 27.0442C25.7182 26.8869 25.1517 26.3027 24.6518 25.7872C24.1758 25.2965 23.7261 24.8328 22.0855 24.6704C22.0639 24.6682 22.0424 24.6648 22.0211 24.6602C21.6969 24.5889 21.4002 24.5534 21.1315 24.5534ZM4.29728 37.1751C4.21934 37.1752 4.14261 37.1558 4.07405 37.1187C4.00548 37.0817 3.94726 37.0281 3.90466 36.9628C0.412094 31.6238 -0.792313 25.2443 0.513345 18.9995C1.819 12.7547 5.47835 7.39198 10.8173 3.89951C14.5557 1.45404 18.8807 0.107788 23.3247 0.00625685C27.5201 -0.0895557 31.6638 0.91657 35.3388 2.9187C35.5611 2.65736 35.82 2.42937 36.1072 2.24173C36.9094 1.71691 37.8678 1.53598 38.8058 1.7322C39.744 1.92832 40.5496 2.47807 41.0743 3.2802C42.1574 4.93592 41.6915 7.16417 40.0358 8.24726C38.3802 9.33045 36.1519 8.86451 35.0687 7.20879C34.361 6.12682 34.3146 4.80045 34.8295 3.70882C27.3905 -0.319056 18.4265 0.042257 11.3306 4.68401C6.20116 8.03951 2.68544 13.1916 1.43097 19.1914C0.176594 25.1912 1.33366 31.3202 4.68916 36.4496C4.73542 36.5203 4.76172 36.6022 4.76527 36.6866C4.76883 36.771 4.74951 36.8548 4.70936 36.9291C4.66921 37.0034 4.60972 37.0655 4.53719 37.1088C4.46465 37.1521 4.38176 37.175 4.29728 37.1751Z" fill="white"/>
</svg>
