<svg width="18" height="18" viewBox="0 0 18 18" fill="none" xmlns="http://www.w3.org/2000/svg">
<path d="M11.1764 3.14092C10.7479 3.06177 10.3545 3.33518 10.2729 3.75339C10.1913 4.1716 10.4656 4.57992 10.8824 4.66176C12.1372 4.90639 13.1061 5.87772 13.3517 7.13684V7.13774C13.4216 7.50019 13.7407 7.7637 14.1082 7.7637C14.1575 7.7637 14.2068 7.75921 14.257 7.75021C14.6738 7.66657 14.948 7.25915 14.8665 6.84005C14.4999 4.95945 13.0523 3.50696 11.1764 3.14092Z" fill="#00833D"/>
<path d="M11.1204 0.00713673C10.9196 -0.0216433 10.7179 0.0377155 10.5575 0.165427C10.3926 0.294937 10.2895 0.482007 10.2671 0.691561C10.2196 1.11517 10.5252 1.4983 10.9483 1.54597C13.8657 1.87154 16.1334 4.14426 16.4614 7.07083C16.5053 7.46295 16.8343 7.75885 17.2269 7.75885C17.2565 7.75885 17.2851 7.75705 17.3147 7.75345C17.52 7.73097 17.7028 7.62934 17.8319 7.46745C17.9601 7.30556 18.0183 7.1041 17.995 6.89815C17.5863 3.24668 14.7602 0.412755 11.1204 0.00713673Z" fill="#00833D"/>
<path fill-rule="evenodd" clip-rule="evenodd" d="M8.1285 9.87506C11.7186 13.4642 12.5331 9.31197 14.819 11.5962C17.0227 13.7994 18.2893 14.2408 15.4972 17.0321C15.1474 17.3132 12.9253 20.6947 5.1161 12.8876C-2.69411 5.07956 0.68542 2.85518 0.966565 2.50553C3.76545 -0.293537 4.19924 0.980436 6.40299 3.18357C8.68885 5.4688 4.53835 6.28592 8.1285 9.87506Z" fill="#00833D"/>
</svg>
