<svg width="38" height="38" viewBox="0 0 38 38" fill="none" xmlns="http://www.w3.org/2000/svg">
<g clip-path="url(#clip0_56_132)">
<path fill-rule="evenodd" clip-rule="evenodd" d="M0.00622324 33.3709L0.00463867 21.3994C0.766811 21.7746 1.55751 22.1324 2.37514 22.4727L2.37672 32.0759C2.37672 34.058 3.9898 35.6664 5.9705 35.6664H32.0555C34.0362 35.6664 35.6493 34.058 35.6493 32.0759V22.3382C36.459 22.0168 37.2528 21.6828 38.0293 21.3345V33.3709C38.0293 35.9261 35.9535 37.9999 33.396 37.9999H4.63947C2.08199 37.9999 0.00622324 35.9261 0.00622324 33.3709ZM3.56514 31.7181L3.56356 22.9493C7.06226 24.2933 11.0411 25.3493 15.4462 26.1424L15.4477 28.3461C15.4477 29.0854 16.0499 29.687 16.7899 29.687H21.2377C21.9777 29.687 22.5798 29.0854 22.5798 28.3461V26.0997C26.7995 25.259 30.7863 24.1619 34.4577 22.7957V31.7181C34.4577 33.2411 33.2249 34.4823 31.6942 34.4823H6.32861C4.8011 34.4823 3.56514 33.2411 3.56514 31.7181Z" fill="#00833D"/>
<path fill-rule="evenodd" clip-rule="evenodd" d="M0 19.0025L0.00633824 11.7614C0.00633824 9.20938 2.08211 7.1355 4.63642 7.1355H33.3993C35.9536 7.1355 38.0294 9.20938 38.0294 11.7614V19.0025C33.4896 21.3107 28.2606 23.0553 22.58 24.2727V21.5276C22.58 20.7883 21.9778 20.1867 21.2378 20.1867H16.79C16.05 20.1867 15.4479 20.7883 15.4479 21.5276V24.3202C9.37742 23.1456 4.17531 21.3978 0 19.0025Z" fill="#00833D"/>
<path fill-rule="evenodd" clip-rule="evenodd" d="M11.9033 9.51343V4.39997C11.9033 3.29812 12.8033 2.39258 13.9094 2.39258H24.1361C25.2485 2.39258 26.1485 3.29812 26.1485 4.39997V9.51343H23.7685V4.76092H14.2643V9.51343H11.9033Z" fill="#00833D"/>
<path fill-rule="evenodd" clip-rule="evenodd" d="M16.6362 22.3844V27.4931C16.6362 28.0488 17.0894 28.5016 17.6456 28.5016H20.3821C20.9383 28.5016 21.3915 28.0488 21.3915 27.4931V22.3844C21.3915 21.8287 20.9383 21.376 20.3821 21.376H17.6456C17.0894 21.376 16.6362 21.8287 16.6362 22.3844Z" fill="#00833D"/>
</g>
<defs>
<clipPath id="clip0_56_132">
<rect width="38" height="38" fill="white"/>
</clipPath>
</defs>
</svg>
