<svg width="32" height="32" viewBox="0 0 32 32" fill="none" xmlns="http://www.w3.org/2000/svg">
<path d="M16 32C24.8366 32 32 24.8366 32 16C32 7.16344 24.8366 0 16 0C7.16344 0 0 7.16344 0 16C0 24.8366 7.16344 32 16 32Z" fill="url(#paint0_linear_84_86)"/>
<path d="M19.3993 7.11133H12.6082C9.57885 7.11133 7.11841 9.57177 7.11841 12.6011V19.3922C7.11841 22.4216 9.57885 24.882 12.6082 24.882H19.3993C22.4286 24.882 24.8891 22.4216 24.8891 19.3922V12.6011C24.8891 9.57177 22.4286 7.11133 19.3993 7.11133ZM22.9051 19.3993C22.9051 21.3335 21.3335 22.9122 19.3922 22.9122H12.6011C10.6669 22.9122 9.08819 21.3407 9.08819 19.3993V12.6082C9.08819 10.674 10.6597 9.09533 12.6011 9.09533H19.3922C21.3264 9.09533 22.9051 10.6669 22.9051 12.6082V19.3993Z" fill="white"/>
<path d="M16.0001 11.4561C13.4969 11.4561 11.4561 13.4969 11.4561 16.0001C11.4561 18.5032 13.4969 20.5441 16.0001 20.5441C18.5032 20.5441 20.5441 18.5032 20.5441 16.0001C20.5441 13.4969 18.5032 11.4561 16.0001 11.4561ZM16.0001 18.7592C14.4783 18.7592 13.2409 17.5218 13.2409 16.0001C13.2409 14.4783 14.4783 13.2409 16.0001 13.2409C17.5218 13.2409 18.7592 14.4783 18.7592 16.0001C18.7592 17.5218 17.5218 18.7592 16.0001 18.7592Z" fill="white"/>
<path d="M20.89 11.9537C21.3086 11.8858 21.593 11.4914 21.5251 11.0728C21.4573 10.6542 21.0629 10.3698 20.6442 10.4377C20.2256 10.5055 19.9412 10.8999 20.0091 11.3186C20.077 11.7372 20.4714 12.0216 20.89 11.9537Z" fill="white"/>
<defs>
<linearGradient id="paint0_linear_84_86" x1="3.81717" y1="28.1828" x2="26.555" y2="5.44505" gradientUnits="userSpaceOnUse">
<stop stop-color="#FEE411"/>
<stop offset="0.0518459" stop-color="#FEDB16"/>
<stop offset="0.1381" stop-color="#FEC125"/>
<stop offset="0.2481" stop-color="#FE983D"/>
<stop offset="0.3762" stop-color="#FE5F5E"/>
<stop offset="0.5" stop-color="#FE2181"/>
<stop offset="1" stop-color="#9000DC"/>
</linearGradient>
</defs>
</svg>
